<?xml version="1.0" standalone="no"?>
<!DOCTYPE svg PUBLIC "-//W3C//DTD SVG 20010904//EN"
 "http://www.w3.org/TR/2001/REC-SVG-20010904/DTD/svg10.dtd">
<svg version="1.0" xmlns="http://www.w3.org/2000/svg"
 width="244.000000pt" height="101.000000pt" viewBox="0 0 244.000000 101.000000"
 preserveAspectRatio="xMidYMid meet">

<g transform="translate(0.000000,101.000000) scale(0.100000,-0.100000)"
fill="#EF4444" stroke="none">
<path d="M20 505 l0 -485 1205 0 1205 0 0 485 0 485 -1205 0 -1205 0 0 -485z
m2388 3 l-3 -463 -1182 -3 -1183 -2 0 465 0 465 1185 0 1185 0 -2 -462z"/>
<path d="M110 500 l0 -390 530 0 530 0 0 390 0 390 -530 0 -530 0 0 -390z
m351 101 c48 -58 7 -151 -66 -151 -35 0 -35 0 -35 -45 l0 -45 -40 0 -40 0 0
136 0 136 81 -4 c70 -3 83 -6 100 -27z m255 13 c48 -23 67 -64 62 -131 -4 -44
-11 -60 -37 -86 -29 -30 -37 -32 -111 -35 l-80 -4 0 136 0 136 66 0 c40 0 79
-6 100 -16z m304 -14 c0 -29 -2 -30 -45 -30 -41 0 -45 -2 -45 -25 0 -22 4 -25
40 -25 38 0 40 -2 40 -30 0 -28 -2 -30 -40 -30 l-40 0 0 -50 0 -50 -40 0 -40
0 0 135 0 135 85 0 85 0 0 -30z"/>
<path d="M360 539 c0 -24 4 -30 17 -27 22 4 30 38 11 49 -22 15 -28 10 -28
-22z"/>
<path d="M630 496 c0 -61 3 -76 15 -76 26 0 55 38 55 73 0 39 -16 62 -47 72
-22 6 -23 4 -23 -69z"/>
<path d="M1433 616 c-92 -42 -98 -204 -9 -241 41 -17 103 -19 140 -5 24 9 26
14 26 75 l0 65 -55 0 c-52 0 -55 -1 -55 -25 0 -18 5 -25 20 -25 15 0 20 -7 20
-25 0 -20 -5 -25 -25 -25 -36 0 -65 33 -65 76 0 67 35 98 96 84 27 -6 33 -4
43 16 13 29 6 33 -56 40 -30 3 -60 -1 -80 -10z"/>
<path d="M1640 490 l0 -130 80 0 80 0 0 30 c0 29 -2 30 -45 30 -41 0 -45 2
-45 25 0 23 4 25 40 25 36 0 40 3 40 25 0 23 -4 25 -40 25 -36 0 -40 3 -40 25
0 23 4 25 45 25 41 0 45 2 45 25 0 25 -1 25 -80 25 l-80 0 0 -130z"/>
<path d="M1850 490 l0 -130 30 0 30 0 1 98 0 97 50 -97 49 -98 45 0 45 0 0
130 0 130 -30 0 -29 0 -3 -87 -3 -88 -45 88 -44 87 -48 0 -48 0 0 -130z"/>
</g>
</svg>
